<?xml version="1.0" standalone="no"?>
<!DOCTYPE svg PUBLIC "-//W3C//DTD SVG 20010904//EN"
 "http://www.w3.org/TR/2001/REC-SVG-20010904/DTD/svg10.dtd">
<svg version="1.0" xmlns="http://www.w3.org/2000/svg"
 width="300.000000pt" height="300.000000pt" viewBox="0 0 300.000000 300.000000"
 preserveAspectRatio="xMidYMid meet">
<metadata>
Created by potrace 1.10, written by Peter Selinger 2001-2011
</metadata>
<g transform="translate(0.000000,300.000000) scale(0.100000,-0.100000)"
fill="#ffffff" stroke="none">
<path d="M390 2723 c-31 -6 -86 -46 -102 -76 -7 -12 -13 -38 -14 -57 -1 -19
-3 -519 -3 -1111 -1 -936 1 -1080 14 -1110 22 -51 51 -80 87 -87 18 -4 530 -7
1138 -7 1036 0 1107 1 1140 18 20 9 45 32 55 50 19 31 20 60 22 1118 2 753 -1
1104 -8 1148 -6 34 -14 60 -16 57 -3 -3 -13 4 -22 16 -40 49 -22 48 -1181 46
-597 0 -1096 -3 -1110 -5z m2276 -57 l34 -34 -2 -1137 -3 -1137 -35 -29 -34
-29 -1129 0 -1129 0 -34 34 -34 34 0 1132 0 1132 34 34 34 34 1132 0 1132 0
34 -34z"/>
<path d="M1376 2364 c-227 -55 -390 -248 -412 -489 -5 -45 -14 -79 -26 -94
-14 -19 -18 -41 -18 -113 0 -86 1 -91 29 -119 23 -22 39 -29 70 -29 64 0 71
14 71 149 0 102 -3 120 -18 134 -10 10 -27 17 -36 17 -16 0 -18 6 -12 58 24
198 134 340 321 412 47 18 80 23 155 23 101 0 173 -20 252 -69 125 -79 206
-210 222 -361 6 -58 5 -63 -12 -63 -42 0 -52 -29 -52 -153 0 -130 7 -147 65
-147 46 0 81 17 94 47 6 13 11 61 11 107 0 66 -4 88 -18 107 -12 16 -21 49
-26 96 -17 189 -123 351 -284 436 -119 63 -252 81 -376 51z m-329 -594 c8 -9
12 -49 13 -101 0 -74 -3 -88 -21 -105 -19 -17 -23 -17 -47 -3 -26 14 -27 19
-30 105 -2 80 0 94 19 118 22 28 34 26 66 -14z m991 -115 c-3 -77 -4 -80 -32
-94 -46 -22 -63 6 -65 111 -1 89 1 95 39 121 25 18 25 18 43 -20 13 -28 16
-59 15 -118z"/>
<path d="M1369 2174 c-63 -19 -131 -81 -159 -146 -18 -40 -24 -78 -28 -158 -3
-74 -9 -107 -18 -113 -9 -5 -14 -28 -14 -67 0 -77 47 -171 106 -213 41 -29
154 -51 154 -30 0 21 42 53 71 53 67 0 100 -52 71 -111 -21 -41 -57 -52 -103
-31 -19 8 -47 14 -64 13 -16 -1 -45 3 -64 9 -19 5 -37 7 -40 5 -8 -9 82 -96
121 -116 49 -25 139 -25 193 0 55 25 109 85 140 154 15 32 42 80 61 108 18 27
38 67 44 87 15 54 13 129 -4 139 -9 6 -15 39 -18 113 -4 80 -10 118 -28 158
-28 64 -93 124 -157 146 -58 20 -200 20 -264 0z m205 -21 c7 -8 12 -9 54 -11
15 -1 21 -6 16 -14 -4 -7 -3 -8 5 -4 6 4 18 0 27 -8 8 -9 23 -21 33 -28 41
-29 64 -98 72 -216 4 -64 13 -119 20 -128 23 -28 8 -149 -21 -174 -12 -10 -45
-67 -77 -130 -38 -78 -56 -99 -108 -132 -50 -30 -116 -35 -167 -12 -47 21 -50
38 -5 30 90 -16 96 -15 132 19 60 56 47 142 -26 179 -38 19 -88 8 -126 -27
-68 -62 -184 24 -214 157 -10 46 -9 57 7 87 12 24 20 67 24 146 6 102 9 116
36 155 16 24 32 44 36 46 4 2 19 13 34 25 15 12 46 27 68 34 47 13 169 17 180
6z"/>
<path d="M1225 1263 c-16 -9 -82 -35 -147 -59 -65 -24 -131 -50 -146 -58 -30
-16 -79 -67 -106 -109 -45 -73 -94 -255 -81 -298 12 -37 81 -59 262 -84 119
-16 384 -37 391 -30 2 2 -5 19 -16 37 -56 90 -109 313 -121 510 l-6 106 -30
-15z m2 -103 c8 -136 47 -326 87 -426 13 -32 22 -63 19 -67 -9 -16 -348 18
-463 45 -93 22 -105 46 -76 154 18 70 67 175 77 168 5 -3 9 1 9 8 0 28 67 77
145 106 44 17 98 37 120 45 65 25 80 19 82 -33z"/>
<path d="M1737 1161 c-9 -185 -67 -419 -125 -509 -8 -12 -12 -25 -10 -28 8 -8
284 16 418 36 219 34 247 49 235 128 -22 161 -102 313 -187 358 -15 8 -81 34
-145 58 -65 23 -132 50 -149 59 l-31 16 -6 -118z m120 33 c221 -85 260 -112
308 -217 28 -60 55 -159 55 -198 0 -25 -19 -50 -44 -56 -167 -38 -443 -70
-495 -56 -17 4 -18 9 -9 36 6 18 14 34 18 37 10 7 58 203 70 285 5 39 10 95
10 126 0 49 5 69 17 69 1 0 33 -12 70 -26z"/>
<path d="M1397 1094 c-4 -4 -7 -22 -7 -41 0 -25 8 -40 32 -61 l31 -29 -16
-130 c-26 -199 -31 -183 57 -183 42 0 78 5 81 11 4 6 -1 75 -11 155 l-17 145
32 33 c26 27 32 40 29 67 l-3 34 -101 3 c-55 1 -103 0 -107 -4z m168 -49 c0
-11 -11 -33 -25 -48 l-26 -28 12 -112 c20 -172 19 -177 -13 -177 -60 0 -61 5
-35 209 8 62 8 65 -25 113 -18 28 -33 51 -33 53 0 8 39 13 90 12 48 -2 55 -5
55 -22z"/>
</g>
</svg>
